# xmcd
#
# Track frame offsets: 
#        150
#        13534
#        35285
#        51537
#        67610
#        81192
#        101705
#        114737
#        133657
#        147912
#        165207
#        184732
#        196947
#        211455
#
# Disc length: 3053 seconds
#
# Revision: 0
# Processed by: cddbd v1.5.2PL0 Copyright (c) Steve Scherf et al.
# Submitted via: ExactAudioCopy v0.99pb3
#
DISCID=bd0beb0e
DTITLE=John Weston - Sugar Daddy Blues
DYEAR=2002
DGENRE=Blues
TTITLE0=I'd Rather Be loved
TTITLE1=Sugar Daddy Blues
TTITLE2=I'd Rather Leave
TTITLE3=Southern Boy
TTITLE4=I Won't Be Used No More
TTITLE5=Share Croppers Blues
TTITLE6=I Got Hooked
TTITLE7=Lots Of Love
TTITLE8=I've Got Help Loving You
TTITLE9=About Women
TTITLE10=Snuff Dipping Woman
TTITLE11=Drifting Drum Blues
TTITLE12=You Have Nothing To Take With You
TTITLE13=My School Days
EXTD=
EXTT0=
EXTT1=
EXTT2=
EXTT3=
EXTT4=
EXTT5=
EXTT6=
EXTT7=
EXTT8=
EXTT9=
EXTT10=
EXTT11=
EXTT12=
EXTT13=
PLAYORDER=
